<mxfile host="app.diagrams.net" agent="Mozilla/5.0 (Macintosh; Intel Mac OS X 10_15_7) AppleWebKit/605.1.15 (KHTML, like Gecko) Version/18.2 Safari/605.1.15" version="25.0.1" pages="5">
  <diagram id="7uKh4mXjR8NCpQf8pAsT" name="Pagina-2">
    <mxGraphModel dx="1674" dy="827" grid="1" gridSize="10" guides="1" tooltips="1" connect="1" arrows="1" fold="1" page="1" pageScale="1" pageWidth="827" pageHeight="1169" math="0" shadow="0">
      <root>
        <mxCell id="0" />
        <mxCell id="1" parent="0" />
        <mxCell id="RDjt_mT250CGhot7ouWW-1" value="Utente" style="shape=umlActor;verticalLabelPosition=bottom;verticalAlign=top;html=1;" vertex="1" parent="1">
          <mxGeometry x="90" y="350" width="30" height="60" as="geometry" />
        </mxCell>
        <mxCell id="RDjt_mT250CGhot7ouWW-2" value="admin" style="shape=umlActor;verticalLabelPosition=bottom;verticalAlign=top;html=1;" vertex="1" parent="1">
          <mxGeometry x="500" y="240" width="30" height="60" as="geometry" />
        </mxCell>
        <mxCell id="RDjt_mT250CGhot7ouWW-3" value="DB" style="shape=umlActor;verticalLabelPosition=bottom;verticalAlign=top;html=1;" vertex="1" parent="1">
          <mxGeometry x="500" y="430" width="30" height="60" as="geometry" />
        </mxCell>
        <mxCell id="RDjt_mT250CGhot7ouWW-4" value="creazione account" style="ellipse;html=1;whiteSpace=wrap;" vertex="1" parent="1">
          <mxGeometry x="260" y="230" width="110" height="40" as="geometry" />
        </mxCell>
        <mxCell id="RDjt_mT250CGhot7ouWW-5" value="eliminazione account&amp;nbsp;" style="ellipse;html=1;whiteSpace=wrap;" vertex="1" parent="1">
          <mxGeometry x="260" y="300" width="110" height="40" as="geometry" />
        </mxCell>
        <mxCell id="RDjt_mT250CGhot7ouWW-6" value="preparazione messaggio" style="ellipse;html=1;whiteSpace=wrap;" vertex="1" parent="1">
          <mxGeometry x="260" y="370" width="110" height="40" as="geometry" />
        </mxCell>
        <mxCell id="RDjt_mT250CGhot7ouWW-7" value="spedire" style="ellipse;html=1;whiteSpace=wrap;" vertex="1" parent="1">
          <mxGeometry x="260" y="440" width="110" height="40" as="geometry" />
        </mxCell>
        <mxCell id="RDjt_mT250CGhot7ouWW-11" value="" style="endArrow=none;html=1;endSize=12;startArrow=none;startSize=14;startFill=0;align=center;verticalAlign=bottom;endFill=0;rounded=0;entryX=0.5;entryY=0;entryDx=0;entryDy=0;entryPerimeter=0;exitX=0;exitY=0.5;exitDx=0;exitDy=0;" edge="1" parent="1" source="RDjt_mT250CGhot7ouWW-4" target="RDjt_mT250CGhot7ouWW-1">
          <mxGeometry y="3" relative="1" as="geometry">
            <mxPoint x="140" y="520" as="sourcePoint" />
            <mxPoint x="300" y="520" as="targetPoint" />
          </mxGeometry>
        </mxCell>
        <mxCell id="RDjt_mT250CGhot7ouWW-12" value="" style="endArrow=none;html=1;endSize=12;startArrow=none;startSize=14;startFill=0;align=center;verticalAlign=bottom;endFill=0;rounded=0;exitX=0;exitY=0.5;exitDx=0;exitDy=0;entryX=0.5;entryY=0;entryDx=0;entryDy=0;entryPerimeter=0;" edge="1" parent="1" source="RDjt_mT250CGhot7ouWW-5" target="RDjt_mT250CGhot7ouWW-1">
          <mxGeometry y="3" relative="1" as="geometry">
            <mxPoint x="270" y="260" as="sourcePoint" />
            <mxPoint x="110" y="350" as="targetPoint" />
          </mxGeometry>
        </mxCell>
        <mxCell id="RDjt_mT250CGhot7ouWW-13" value="" style="endArrow=none;html=1;endSize=12;startArrow=none;startSize=14;startFill=0;align=center;verticalAlign=bottom;endFill=0;rounded=0;entryX=0.5;entryY=0;entryDx=0;entryDy=0;entryPerimeter=0;exitX=0;exitY=0.5;exitDx=0;exitDy=0;" edge="1" parent="1" source="RDjt_mT250CGhot7ouWW-6" target="RDjt_mT250CGhot7ouWW-1">
          <mxGeometry y="3" relative="1" as="geometry">
            <mxPoint x="280" y="270" as="sourcePoint" />
            <mxPoint x="125" y="370" as="targetPoint" />
          </mxGeometry>
        </mxCell>
        <mxCell id="RDjt_mT250CGhot7ouWW-14" value="" style="endArrow=none;html=1;endSize=12;startArrow=none;startSize=14;startFill=0;align=center;verticalAlign=bottom;endFill=0;rounded=0;entryX=0.5;entryY=0;entryDx=0;entryDy=0;entryPerimeter=0;exitX=0;exitY=0.5;exitDx=0;exitDy=0;" edge="1" parent="1" source="RDjt_mT250CGhot7ouWW-7" target="RDjt_mT250CGhot7ouWW-1">
          <mxGeometry y="3" relative="1" as="geometry">
            <mxPoint x="290" y="280" as="sourcePoint" />
            <mxPoint x="135" y="380" as="targetPoint" />
          </mxGeometry>
        </mxCell>
        <mxCell id="RDjt_mT250CGhot7ouWW-15" value="" style="endArrow=none;html=1;endSize=12;startArrow=none;startSize=14;startFill=0;align=center;verticalAlign=bottom;endFill=0;rounded=0;entryX=0.5;entryY=0;entryDx=0;entryDy=0;entryPerimeter=0;exitX=1;exitY=0.5;exitDx=0;exitDy=0;" edge="1" parent="1" source="RDjt_mT250CGhot7ouWW-4" target="RDjt_mT250CGhot7ouWW-2">
          <mxGeometry y="3" relative="1" as="geometry">
            <mxPoint x="300" y="290" as="sourcePoint" />
            <mxPoint x="145" y="390" as="targetPoint" />
          </mxGeometry>
        </mxCell>
        <mxCell id="RDjt_mT250CGhot7ouWW-16" value="" style="endArrow=none;html=1;endSize=12;startArrow=none;startSize=14;startFill=0;align=center;verticalAlign=bottom;endFill=0;rounded=0;entryX=0.5;entryY=0;entryDx=0;entryDy=0;entryPerimeter=0;exitX=1;exitY=0.5;exitDx=0;exitDy=0;" edge="1" parent="1" source="RDjt_mT250CGhot7ouWW-4" target="RDjt_mT250CGhot7ouWW-3">
          <mxGeometry y="3" relative="1" as="geometry">
            <mxPoint x="310" y="300" as="sourcePoint" />
            <mxPoint x="155" y="400" as="targetPoint" />
          </mxGeometry>
        </mxCell>
        <mxCell id="RDjt_mT250CGhot7ouWW-17" value="" style="endArrow=none;html=1;endSize=12;startArrow=none;startSize=14;startFill=0;align=center;verticalAlign=bottom;endFill=0;rounded=0;entryX=0.5;entryY=0;entryDx=0;entryDy=0;entryPerimeter=0;exitX=1;exitY=0.5;exitDx=0;exitDy=0;" edge="1" parent="1" source="RDjt_mT250CGhot7ouWW-5" target="RDjt_mT250CGhot7ouWW-3">
          <mxGeometry y="3" relative="1" as="geometry">
            <mxPoint x="320" y="310" as="sourcePoint" />
            <mxPoint x="165" y="410" as="targetPoint" />
          </mxGeometry>
        </mxCell>
        <mxCell id="RDjt_mT250CGhot7ouWW-18" value="" style="endArrow=none;html=1;endSize=12;startArrow=none;startSize=14;startFill=0;align=center;verticalAlign=bottom;endFill=0;rounded=0;entryX=0.5;entryY=0;entryDx=0;entryDy=0;entryPerimeter=0;exitX=1;exitY=0.5;exitDx=0;exitDy=0;" edge="1" parent="1" source="RDjt_mT250CGhot7ouWW-5" target="RDjt_mT250CGhot7ouWW-2">
          <mxGeometry y="3" relative="1" as="geometry">
            <mxPoint x="380" y="320" as="sourcePoint" />
            <mxPoint x="175" y="420" as="targetPoint" />
          </mxGeometry>
        </mxCell>
      </root>
    </mxGraphModel>
  </diagram>
  <diagram id="IorZ8EUd1iyntwWjrZEY" name="Pagina-3">
    <mxGraphModel dx="1674" dy="827" grid="1" gridSize="10" guides="1" tooltips="1" connect="1" arrows="1" fold="1" page="1" pageScale="1" pageWidth="827" pageHeight="1169" math="0" shadow="0">
      <root>
        <mxCell id="0" />
        <mxCell id="1" parent="0" />
        <mxCell id="6ybf6IS9MUHjENojcd30-1" value="sito" style="shape=umlLifeline;perimeter=lifelinePerimeter;whiteSpace=wrap;html=1;container=1;dropTarget=0;collapsible=0;recursiveResize=0;outlineConnect=0;portConstraint=eastwest;newEdgeStyle={&quot;edgeStyle&quot;:&quot;elbowEdgeStyle&quot;,&quot;elbow&quot;:&quot;vertical&quot;,&quot;curved&quot;:0,&quot;rounded&quot;:0};" vertex="1" parent="1">
          <mxGeometry x="290" y="170" width="100" height="300" as="geometry" />
        </mxCell>
        <mxCell id="6ybf6IS9MUHjENojcd30-6" value="" style="html=1;points=[[0,0,0,0,5],[0,1,0,0,-5],[1,0,0,0,5],[1,1,0,0,-5]];perimeter=orthogonalPerimeter;outlineConnect=0;targetShapes=umlLifeline;portConstraint=eastwest;newEdgeStyle={&quot;curved&quot;:0,&quot;rounded&quot;:0};" vertex="1" parent="6ybf6IS9MUHjENojcd30-1">
          <mxGeometry x="45" y="90" width="10" height="210" as="geometry" />
        </mxCell>
        <mxCell id="6ybf6IS9MUHjENojcd30-3" value="utente" style="shape=umlLifeline;perimeter=lifelinePerimeter;whiteSpace=wrap;html=1;container=1;dropTarget=0;collapsible=0;recursiveResize=0;outlineConnect=0;portConstraint=eastwest;newEdgeStyle={&quot;edgeStyle&quot;:&quot;elbowEdgeStyle&quot;,&quot;elbow&quot;:&quot;vertical&quot;,&quot;curved&quot;:0,&quot;rounded&quot;:0};" vertex="1" parent="1">
          <mxGeometry x="170" y="170" width="100" height="350" as="geometry" />
        </mxCell>
        <mxCell id="6ybf6IS9MUHjENojcd30-4" value="" style="html=1;points=[[0,0,0,0,5],[0,1,0,0,-5],[1,0,0,0,5],[1,1,0,0,-5]];perimeter=orthogonalPerimeter;outlineConnect=0;targetShapes=umlLifeline;portConstraint=eastwest;newEdgeStyle={&quot;curved&quot;:0,&quot;rounded&quot;:0};" vertex="1" parent="6ybf6IS9MUHjENojcd30-3">
          <mxGeometry x="45" y="90" width="10" height="260" as="geometry" />
        </mxCell>
        <mxCell id="6ybf6IS9MUHjENojcd30-8" value="DB" style="shape=umlLifeline;perimeter=lifelinePerimeter;whiteSpace=wrap;html=1;container=1;dropTarget=0;collapsible=0;recursiveResize=0;outlineConnect=0;portConstraint=eastwest;newEdgeStyle={&quot;edgeStyle&quot;:&quot;elbowEdgeStyle&quot;,&quot;elbow&quot;:&quot;vertical&quot;,&quot;curved&quot;:0,&quot;rounded&quot;:0};" vertex="1" parent="1">
          <mxGeometry x="534" y="170" width="100" height="330" as="geometry" />
        </mxCell>
        <mxCell id="6ybf6IS9MUHjENojcd30-9" value="" style="html=1;points=[[0,0,0,0,5],[0,1,0,0,-5],[1,0,0,0,5],[1,1,0,0,-5]];perimeter=orthogonalPerimeter;outlineConnect=0;targetShapes=umlLifeline;portConstraint=eastwest;newEdgeStyle={&quot;curved&quot;:0,&quot;rounded&quot;:0};" vertex="1" parent="6ybf6IS9MUHjENojcd30-8">
          <mxGeometry x="45" y="90" width="10" height="240" as="geometry" />
        </mxCell>
        <mxCell id="6ybf6IS9MUHjENojcd30-14" value="" style="html=1;verticalAlign=bottom;labelBackgroundColor=none;endArrow=block;endFill=1;endSize=6;align=left;rounded=0;exitX=1;exitY=0;exitDx=0;exitDy=5;exitPerimeter=0;entryX=0;entryY=0;entryDx=0;entryDy=5;entryPerimeter=0;" edge="1" parent="1" source="6ybf6IS9MUHjENojcd30-4" target="6ybf6IS9MUHjENojcd30-6">
          <mxGeometry x="-1" relative="1" as="geometry">
            <mxPoint x="70" y="280" as="sourcePoint" />
            <mxPoint x="230" y="280" as="targetPoint" />
          </mxGeometry>
        </mxCell>
        <mxCell id="6ybf6IS9MUHjENojcd30-15" value="creazione(id,psw)" style="edgeLabel;html=1;align=center;verticalAlign=middle;resizable=0;points=[];" vertex="1" connectable="0" parent="6ybf6IS9MUHjENojcd30-14">
          <mxGeometry x="-0.0182" relative="1" as="geometry">
            <mxPoint as="offset" />
          </mxGeometry>
        </mxCell>
        <mxCell id="6ybf6IS9MUHjENojcd30-16" value="" style="html=1;verticalAlign=bottom;labelBackgroundColor=none;endArrow=block;endFill=1;endSize=6;align=left;rounded=0;" edge="1" parent="1" target="6ybf6IS9MUHjENojcd30-9">
          <mxGeometry x="-1" relative="1" as="geometry">
            <mxPoint x="350" y="275" as="sourcePoint" />
            <mxPoint x="458.9999999999998" y="275" as="targetPoint" />
          </mxGeometry>
        </mxCell>
        <mxCell id="6ybf6IS9MUHjENojcd30-18" value="creazione" style="edgeLabel;html=1;align=center;verticalAlign=middle;resizable=0;points=[];" vertex="1" connectable="0" parent="6ybf6IS9MUHjENojcd30-16">
          <mxGeometry x="0.0459" relative="1" as="geometry">
            <mxPoint as="offset" />
          </mxGeometry>
        </mxCell>
        <mxCell id="6ybf6IS9MUHjENojcd30-21" value="potrei implementare un loop che continui fino a che l id non sia di una lunghezza minima" style="text;html=1;align=center;verticalAlign=middle;resizable=0;points=[];autosize=1;strokeColor=none;fillColor=none;" vertex="1" parent="1">
          <mxGeometry x="120" y="58" width="490" height="30" as="geometry" />
        </mxCell>
        <mxCell id="6ybf6IS9MUHjENojcd30-22" value="" style="endArrow=open;html=1;rounded=0;align=center;verticalAlign=bottom;dashed=1;endFill=0;labelBackgroundColor=none;" edge="1" parent="1" target="6ybf6IS9MUHjENojcd30-1">
          <mxGeometry relative="1" as="geometry">
            <mxPoint x="579" y="400" as="sourcePoint" />
            <mxPoint x="463.92857142857133" y="400" as="targetPoint" />
          </mxGeometry>
        </mxCell>
        <mxCell id="6ybf6IS9MUHjENojcd30-23" value="utente inserito" style="resizable=0;html=1;align=center;verticalAlign=top;labelBackgroundColor=none;" connectable="0" vertex="1" parent="6ybf6IS9MUHjENojcd30-22">
          <mxGeometry relative="1" as="geometry" />
        </mxCell>
        <mxCell id="6ybf6IS9MUHjENojcd30-26" value="" style="endArrow=open;html=1;rounded=0;align=center;verticalAlign=bottom;dashed=1;endFill=0;labelBackgroundColor=none;" edge="1" parent="1">
          <mxGeometry relative="1" as="geometry">
            <mxPoint x="335" y="430" as="sourcePoint" />
            <mxPoint x="220" y="430" as="targetPoint" />
          </mxGeometry>
        </mxCell>
        <mxCell id="6ybf6IS9MUHjENojcd30-27" value="hai effettuato il login" style="resizable=0;html=1;align=center;verticalAlign=top;labelBackgroundColor=none;" connectable="0" vertex="1" parent="6ybf6IS9MUHjENojcd30-26">
          <mxGeometry relative="1" as="geometry" />
        </mxCell>
        <mxCell id="6ybf6IS9MUHjENojcd30-28" value="inbox" style="shape=umlLifeline;perimeter=lifelinePerimeter;whiteSpace=wrap;html=1;container=1;dropTarget=0;collapsible=0;recursiveResize=0;outlineConnect=0;portConstraint=eastwest;newEdgeStyle={&quot;edgeStyle&quot;:&quot;elbowEdgeStyle&quot;,&quot;elbow&quot;:&quot;vertical&quot;,&quot;curved&quot;:0,&quot;rounded&quot;:0};" vertex="1" parent="1">
          <mxGeometry x="620" y="250" width="100" height="180" as="geometry" />
        </mxCell>
        <mxCell id="6ybf6IS9MUHjENojcd30-29" value="" style="html=1;points=[[0,0,0,0,5],[0,1,0,0,-5],[1,0,0,0,5],[1,1,0,0,-5]];perimeter=orthogonalPerimeter;outlineConnect=0;targetShapes=umlLifeline;portConstraint=eastwest;newEdgeStyle={&quot;curved&quot;:0,&quot;rounded&quot;:0};" vertex="1" parent="6ybf6IS9MUHjENojcd30-28">
          <mxGeometry x="45" y="60" width="10" height="20" as="geometry" />
        </mxCell>
        <mxCell id="6ybf6IS9MUHjENojcd30-30" value="out" style="shape=umlLifeline;perimeter=lifelinePerimeter;whiteSpace=wrap;html=1;container=1;dropTarget=0;collapsible=0;recursiveResize=0;outlineConnect=0;portConstraint=eastwest;newEdgeStyle={&quot;edgeStyle&quot;:&quot;elbowEdgeStyle&quot;,&quot;elbow&quot;:&quot;vertical&quot;,&quot;curved&quot;:0,&quot;rounded&quot;:0};" vertex="1" parent="1">
          <mxGeometry x="730" y="250" width="100" height="180" as="geometry" />
        </mxCell>
        <mxCell id="6ybf6IS9MUHjENojcd30-31" value="" style="html=1;points=[[0,0,0,0,5],[0,1,0,0,-5],[1,0,0,0,5],[1,1,0,0,-5]];perimeter=orthogonalPerimeter;outlineConnect=0;targetShapes=umlLifeline;portConstraint=eastwest;newEdgeStyle={&quot;curved&quot;:0,&quot;rounded&quot;:0};" vertex="1" parent="6ybf6IS9MUHjENojcd30-30">
          <mxGeometry x="45" y="85" width="10" height="20" as="geometry" />
        </mxCell>
        <mxCell id="6ybf6IS9MUHjENojcd30-32" value="draft" style="shape=umlLifeline;perimeter=lifelinePerimeter;whiteSpace=wrap;html=1;container=1;dropTarget=0;collapsible=0;recursiveResize=0;outlineConnect=0;portConstraint=eastwest;newEdgeStyle={&quot;edgeStyle&quot;:&quot;elbowEdgeStyle&quot;,&quot;elbow&quot;:&quot;vertical&quot;,&quot;curved&quot;:0,&quot;rounded&quot;:0};" vertex="1" parent="1">
          <mxGeometry x="850" y="250" width="100" height="180" as="geometry" />
        </mxCell>
        <mxCell id="6ybf6IS9MUHjENojcd30-33" value="" style="html=1;points=[[0,0,0,0,5],[0,1,0,0,-5],[1,0,0,0,5],[1,1,0,0,-5]];perimeter=orthogonalPerimeter;outlineConnect=0;targetShapes=umlLifeline;portConstraint=eastwest;newEdgeStyle={&quot;curved&quot;:0,&quot;rounded&quot;:0};" vertex="1" parent="6ybf6IS9MUHjENojcd30-32">
          <mxGeometry x="45" y="105" width="10" height="20" as="geometry" />
        </mxCell>
        <mxCell id="6ybf6IS9MUHjENojcd30-34" value="" style="html=1;verticalAlign=bottom;labelBackgroundColor=none;endArrow=block;endFill=1;endSize=6;align=left;rounded=0;" edge="1" parent="1">
          <mxGeometry x="-1" relative="1" as="geometry">
            <mxPoint x="590" y="310" as="sourcePoint" />
            <mxPoint x="660" y="310" as="targetPoint" />
          </mxGeometry>
        </mxCell>
        <mxCell id="6ybf6IS9MUHjENojcd30-35" value="creazione1" style="edgeLabel;html=1;align=center;verticalAlign=middle;resizable=0;points=[];" vertex="1" connectable="0" parent="6ybf6IS9MUHjENojcd30-34">
          <mxGeometry x="0.0459" relative="1" as="geometry">
            <mxPoint as="offset" />
          </mxGeometry>
        </mxCell>
        <mxCell id="6ybf6IS9MUHjENojcd30-36" value="" style="html=1;verticalAlign=bottom;labelBackgroundColor=none;endArrow=block;endFill=1;endSize=6;align=left;rounded=0;" edge="1" parent="1" target="6ybf6IS9MUHjENojcd30-30">
          <mxGeometry x="-1" relative="1" as="geometry">
            <mxPoint x="590" y="344.71" as="sourcePoint" />
            <mxPoint x="699" y="344.71" as="targetPoint" />
          </mxGeometry>
        </mxCell>
        <mxCell id="6ybf6IS9MUHjENojcd30-37" value="creazione2" style="edgeLabel;html=1;align=center;verticalAlign=middle;resizable=0;points=[];" vertex="1" connectable="0" parent="6ybf6IS9MUHjENojcd30-36">
          <mxGeometry x="0.0459" relative="1" as="geometry">
            <mxPoint as="offset" />
          </mxGeometry>
        </mxCell>
        <mxCell id="6ybf6IS9MUHjENojcd30-38" value="" style="html=1;verticalAlign=bottom;labelBackgroundColor=none;endArrow=block;endFill=1;endSize=6;align=left;rounded=0;" edge="1" parent="1" target="6ybf6IS9MUHjENojcd30-32">
          <mxGeometry x="-1" relative="1" as="geometry">
            <mxPoint x="590" y="370" as="sourcePoint" />
            <mxPoint x="699" y="370" as="targetPoint" />
          </mxGeometry>
        </mxCell>
        <mxCell id="6ybf6IS9MUHjENojcd30-39" value="creazione 3" style="edgeLabel;html=1;align=center;verticalAlign=middle;resizable=0;points=[];" vertex="1" connectable="0" parent="6ybf6IS9MUHjENojcd30-38">
          <mxGeometry x="0.0459" relative="1" as="geometry">
            <mxPoint as="offset" />
          </mxGeometry>
        </mxCell>
      </root>
    </mxGraphModel>
  </diagram>
  <diagram id="ANnbnVgEJeZNA_Bvn11J" name="Pagina-4">
    <mxGraphModel dx="1674" dy="827" grid="1" gridSize="10" guides="1" tooltips="1" connect="1" arrows="1" fold="1" page="1" pageScale="1" pageWidth="827" pageHeight="1169" math="0" shadow="0">
      <root>
        <mxCell id="0" />
        <mxCell id="1" parent="0" />
        <mxCell id="ZxREkhoDkMAEQCJmT6lO-1" value="sito" style="shape=umlLifeline;perimeter=lifelinePerimeter;whiteSpace=wrap;html=1;container=1;dropTarget=0;collapsible=0;recursiveResize=0;outlineConnect=0;portConstraint=eastwest;newEdgeStyle={&quot;edgeStyle&quot;:&quot;elbowEdgeStyle&quot;,&quot;elbow&quot;:&quot;vertical&quot;,&quot;curved&quot;:0,&quot;rounded&quot;:0};" vertex="1" parent="1">
          <mxGeometry x="220" y="110" width="100" height="300" as="geometry" />
        </mxCell>
        <mxCell id="ZxREkhoDkMAEQCJmT6lO-2" value="" style="html=1;points=[[0,0,0,0,5],[0,1,0,0,-5],[1,0,0,0,5],[1,1,0,0,-5]];perimeter=orthogonalPerimeter;outlineConnect=0;targetShapes=umlLifeline;portConstraint=eastwest;newEdgeStyle={&quot;curved&quot;:0,&quot;rounded&quot;:0};" vertex="1" parent="ZxREkhoDkMAEQCJmT6lO-1">
          <mxGeometry x="45" y="90" width="10" height="210" as="geometry" />
        </mxCell>
        <mxCell id="ZxREkhoDkMAEQCJmT6lO-3" value="utente" style="shape=umlLifeline;perimeter=lifelinePerimeter;whiteSpace=wrap;html=1;container=1;dropTarget=0;collapsible=0;recursiveResize=0;outlineConnect=0;portConstraint=eastwest;newEdgeStyle={&quot;edgeStyle&quot;:&quot;elbowEdgeStyle&quot;,&quot;elbow&quot;:&quot;vertical&quot;,&quot;curved&quot;:0,&quot;rounded&quot;:0};" vertex="1" parent="1">
          <mxGeometry x="100" y="110" width="100" height="350" as="geometry" />
        </mxCell>
        <mxCell id="ZxREkhoDkMAEQCJmT6lO-4" value="" style="html=1;points=[[0,0,0,0,5],[0,1,0,0,-5],[1,0,0,0,5],[1,1,0,0,-5]];perimeter=orthogonalPerimeter;outlineConnect=0;targetShapes=umlLifeline;portConstraint=eastwest;newEdgeStyle={&quot;curved&quot;:0,&quot;rounded&quot;:0};" vertex="1" parent="ZxREkhoDkMAEQCJmT6lO-3">
          <mxGeometry x="45" y="90" width="10" height="260" as="geometry" />
        </mxCell>
        <mxCell id="ZxREkhoDkMAEQCJmT6lO-5" value="DB" style="shape=umlLifeline;perimeter=lifelinePerimeter;whiteSpace=wrap;html=1;container=1;dropTarget=0;collapsible=0;recursiveResize=0;outlineConnect=0;portConstraint=eastwest;newEdgeStyle={&quot;edgeStyle&quot;:&quot;elbowEdgeStyle&quot;,&quot;elbow&quot;:&quot;vertical&quot;,&quot;curved&quot;:0,&quot;rounded&quot;:0};" vertex="1" parent="1">
          <mxGeometry x="464" y="110" width="100" height="330" as="geometry" />
        </mxCell>
        <mxCell id="ZxREkhoDkMAEQCJmT6lO-6" value="" style="html=1;points=[[0,0,0,0,5],[0,1,0,0,-5],[1,0,0,0,5],[1,1,0,0,-5]];perimeter=orthogonalPerimeter;outlineConnect=0;targetShapes=umlLifeline;portConstraint=eastwest;newEdgeStyle={&quot;curved&quot;:0,&quot;rounded&quot;:0};" vertex="1" parent="ZxREkhoDkMAEQCJmT6lO-5">
          <mxGeometry x="45" y="90" width="10" height="240" as="geometry" />
        </mxCell>
        <mxCell id="ZxREkhoDkMAEQCJmT6lO-7" value="" style="html=1;verticalAlign=bottom;labelBackgroundColor=none;endArrow=block;endFill=1;endSize=6;align=left;rounded=0;exitX=1;exitY=0;exitDx=0;exitDy=5;exitPerimeter=0;entryX=0;entryY=0;entryDx=0;entryDy=5;entryPerimeter=0;" edge="1" parent="1" source="ZxREkhoDkMAEQCJmT6lO-4" target="ZxREkhoDkMAEQCJmT6lO-2">
          <mxGeometry x="-1" relative="1" as="geometry">
            <mxPoint y="220" as="sourcePoint" />
            <mxPoint x="160" y="220" as="targetPoint" />
          </mxGeometry>
        </mxCell>
        <mxCell id="ZxREkhoDkMAEQCJmT6lO-8" value="eliminazione" style="edgeLabel;html=1;align=center;verticalAlign=middle;resizable=0;points=[];" vertex="1" connectable="0" parent="ZxREkhoDkMAEQCJmT6lO-7">
          <mxGeometry x="-0.0182" relative="1" as="geometry">
            <mxPoint as="offset" />
          </mxGeometry>
        </mxCell>
        <mxCell id="ZxREkhoDkMAEQCJmT6lO-9" value="" style="html=1;verticalAlign=bottom;labelBackgroundColor=none;endArrow=block;endFill=1;endSize=6;align=left;rounded=0;" edge="1" parent="1" target="ZxREkhoDkMAEQCJmT6lO-6">
          <mxGeometry x="-1" relative="1" as="geometry">
            <mxPoint x="280" y="215" as="sourcePoint" />
            <mxPoint x="388.9999999999998" y="215" as="targetPoint" />
          </mxGeometry>
        </mxCell>
        <mxCell id="ZxREkhoDkMAEQCJmT6lO-10" value="richiesta eliminazione&amp;nbsp;" style="edgeLabel;html=1;align=center;verticalAlign=middle;resizable=0;points=[];" vertex="1" connectable="0" parent="ZxREkhoDkMAEQCJmT6lO-9">
          <mxGeometry x="0.0459" relative="1" as="geometry">
            <mxPoint as="offset" />
          </mxGeometry>
        </mxCell>
        <mxCell id="ZxREkhoDkMAEQCJmT6lO-11" value="" style="endArrow=open;html=1;rounded=0;align=center;verticalAlign=bottom;dashed=1;endFill=0;labelBackgroundColor=none;" edge="1" parent="1" target="ZxREkhoDkMAEQCJmT6lO-1">
          <mxGeometry relative="1" as="geometry">
            <mxPoint x="509" y="340" as="sourcePoint" />
            <mxPoint x="393.92857142857133" y="340" as="targetPoint" />
          </mxGeometry>
        </mxCell>
        <mxCell id="ZxREkhoDkMAEQCJmT6lO-12" value="eliminato" style="resizable=0;html=1;align=center;verticalAlign=top;labelBackgroundColor=none;" connectable="0" vertex="1" parent="ZxREkhoDkMAEQCJmT6lO-11">
          <mxGeometry relative="1" as="geometry" />
        </mxCell>
        <mxCell id="ZxREkhoDkMAEQCJmT6lO-13" value="" style="endArrow=open;html=1;rounded=0;align=center;verticalAlign=bottom;dashed=1;endFill=0;labelBackgroundColor=none;" edge="1" parent="1">
          <mxGeometry relative="1" as="geometry">
            <mxPoint x="265" y="370" as="sourcePoint" />
            <mxPoint x="150" y="370" as="targetPoint" />
          </mxGeometry>
        </mxCell>
        <mxCell id="ZxREkhoDkMAEQCJmT6lO-14" value="eliminato" style="resizable=0;html=1;align=center;verticalAlign=top;labelBackgroundColor=none;" connectable="0" vertex="1" parent="ZxREkhoDkMAEQCJmT6lO-13">
          <mxGeometry relative="1" as="geometry" />
        </mxCell>
        <mxCell id="ZxREkhoDkMAEQCJmT6lO-15" value="inbox" style="shape=umlLifeline;perimeter=lifelinePerimeter;whiteSpace=wrap;html=1;container=1;dropTarget=0;collapsible=0;recursiveResize=0;outlineConnect=0;portConstraint=eastwest;newEdgeStyle={&quot;edgeStyle&quot;:&quot;elbowEdgeStyle&quot;,&quot;elbow&quot;:&quot;vertical&quot;,&quot;curved&quot;:0,&quot;rounded&quot;:0};" vertex="1" parent="1">
          <mxGeometry x="550" y="190" width="100" height="180" as="geometry" />
        </mxCell>
        <mxCell id="ZxREkhoDkMAEQCJmT6lO-16" value="" style="html=1;points=[[0,0,0,0,5],[0,1,0,0,-5],[1,0,0,0,5],[1,1,0,0,-5]];perimeter=orthogonalPerimeter;outlineConnect=0;targetShapes=umlLifeline;portConstraint=eastwest;newEdgeStyle={&quot;curved&quot;:0,&quot;rounded&quot;:0};" vertex="1" parent="ZxREkhoDkMAEQCJmT6lO-15">
          <mxGeometry x="45" y="60" width="10" height="20" as="geometry" />
        </mxCell>
        <mxCell id="ZxREkhoDkMAEQCJmT6lO-17" value="out" style="shape=umlLifeline;perimeter=lifelinePerimeter;whiteSpace=wrap;html=1;container=1;dropTarget=0;collapsible=0;recursiveResize=0;outlineConnect=0;portConstraint=eastwest;newEdgeStyle={&quot;edgeStyle&quot;:&quot;elbowEdgeStyle&quot;,&quot;elbow&quot;:&quot;vertical&quot;,&quot;curved&quot;:0,&quot;rounded&quot;:0};" vertex="1" parent="1">
          <mxGeometry x="660" y="190" width="100" height="180" as="geometry" />
        </mxCell>
        <mxCell id="ZxREkhoDkMAEQCJmT6lO-18" value="" style="html=1;points=[[0,0,0,0,5],[0,1,0,0,-5],[1,0,0,0,5],[1,1,0,0,-5]];perimeter=orthogonalPerimeter;outlineConnect=0;targetShapes=umlLifeline;portConstraint=eastwest;newEdgeStyle={&quot;curved&quot;:0,&quot;rounded&quot;:0};" vertex="1" parent="ZxREkhoDkMAEQCJmT6lO-17">
          <mxGeometry x="45" y="85" width="10" height="20" as="geometry" />
        </mxCell>
        <mxCell id="ZxREkhoDkMAEQCJmT6lO-19" value="draft" style="shape=umlLifeline;perimeter=lifelinePerimeter;whiteSpace=wrap;html=1;container=1;dropTarget=0;collapsible=0;recursiveResize=0;outlineConnect=0;portConstraint=eastwest;newEdgeStyle={&quot;edgeStyle&quot;:&quot;elbowEdgeStyle&quot;,&quot;elbow&quot;:&quot;vertical&quot;,&quot;curved&quot;:0,&quot;rounded&quot;:0};" vertex="1" parent="1">
          <mxGeometry x="780" y="190" width="100" height="180" as="geometry" />
        </mxCell>
        <mxCell id="ZxREkhoDkMAEQCJmT6lO-20" value="" style="html=1;points=[[0,0,0,0,5],[0,1,0,0,-5],[1,0,0,0,5],[1,1,0,0,-5]];perimeter=orthogonalPerimeter;outlineConnect=0;targetShapes=umlLifeline;portConstraint=eastwest;newEdgeStyle={&quot;curved&quot;:0,&quot;rounded&quot;:0};" vertex="1" parent="ZxREkhoDkMAEQCJmT6lO-19">
          <mxGeometry x="45" y="105" width="10" height="20" as="geometry" />
        </mxCell>
        <mxCell id="ZxREkhoDkMAEQCJmT6lO-21" value="" style="html=1;verticalAlign=bottom;labelBackgroundColor=none;endArrow=block;endFill=1;endSize=6;align=left;rounded=0;" edge="1" parent="1">
          <mxGeometry x="-1" relative="1" as="geometry">
            <mxPoint x="520" y="250" as="sourcePoint" />
            <mxPoint x="590" y="250" as="targetPoint" />
          </mxGeometry>
        </mxCell>
        <mxCell id="ZxREkhoDkMAEQCJmT6lO-22" value="elimina" style="edgeLabel;html=1;align=center;verticalAlign=middle;resizable=0;points=[];" vertex="1" connectable="0" parent="ZxREkhoDkMAEQCJmT6lO-21">
          <mxGeometry x="0.0459" relative="1" as="geometry">
            <mxPoint as="offset" />
          </mxGeometry>
        </mxCell>
        <mxCell id="ZxREkhoDkMAEQCJmT6lO-23" value="" style="html=1;verticalAlign=bottom;labelBackgroundColor=none;endArrow=block;endFill=1;endSize=6;align=left;rounded=0;" edge="1" parent="1" target="ZxREkhoDkMAEQCJmT6lO-17">
          <mxGeometry x="-1" relative="1" as="geometry">
            <mxPoint x="520" y="284.71" as="sourcePoint" />
            <mxPoint x="629" y="284.71" as="targetPoint" />
          </mxGeometry>
        </mxCell>
        <mxCell id="ZxREkhoDkMAEQCJmT6lO-24" value="elimina" style="edgeLabel;html=1;align=center;verticalAlign=middle;resizable=0;points=[];" vertex="1" connectable="0" parent="ZxREkhoDkMAEQCJmT6lO-23">
          <mxGeometry x="0.0459" relative="1" as="geometry">
            <mxPoint as="offset" />
          </mxGeometry>
        </mxCell>
        <mxCell id="ZxREkhoDkMAEQCJmT6lO-25" value="" style="html=1;verticalAlign=bottom;labelBackgroundColor=none;endArrow=block;endFill=1;endSize=6;align=left;rounded=0;" edge="1" parent="1" target="ZxREkhoDkMAEQCJmT6lO-19">
          <mxGeometry x="-1" relative="1" as="geometry">
            <mxPoint x="520" y="310" as="sourcePoint" />
            <mxPoint x="629" y="310" as="targetPoint" />
          </mxGeometry>
        </mxCell>
        <mxCell id="ZxREkhoDkMAEQCJmT6lO-26" value="elimina" style="edgeLabel;html=1;align=center;verticalAlign=middle;resizable=0;points=[];" vertex="1" connectable="0" parent="ZxREkhoDkMAEQCJmT6lO-25">
          <mxGeometry x="0.0459" relative="1" as="geometry">
            <mxPoint as="offset" />
          </mxGeometry>
        </mxCell>
        <mxCell id="ZxREkhoDkMAEQCJmT6lO-27" value="potrei mettere blocco alt per controllo se utente esiste&amp;nbsp;" style="text;html=1;align=center;verticalAlign=middle;resizable=0;points=[];autosize=1;strokeColor=none;fillColor=none;" vertex="1" parent="1">
          <mxGeometry x="155" y="18" width="310" height="30" as="geometry" />
        </mxCell>
        <mxCell id="ZxREkhoDkMAEQCJmT6lO-28" value="" style="shape=umlDestroy;html=1;" vertex="1" parent="1">
          <mxGeometry x="695" y="360" width="30" height="30" as="geometry" />
        </mxCell>
        <mxCell id="ZxREkhoDkMAEQCJmT6lO-29" value="" style="shape=umlDestroy;html=1;" vertex="1" parent="1">
          <mxGeometry x="585" y="360" width="30" height="30" as="geometry" />
        </mxCell>
        <mxCell id="ZxREkhoDkMAEQCJmT6lO-30" value="" style="shape=umlDestroy;html=1;" vertex="1" parent="1">
          <mxGeometry x="815" y="360" width="30" height="30" as="geometry" />
        </mxCell>
      </root>
    </mxGraphModel>
  </diagram>
  <diagram id="zJk_KHnQ1PKEzfk7RWL3" name="Pagina-5">
    <mxGraphModel dx="1154" dy="570" grid="1" gridSize="10" guides="1" tooltips="1" connect="1" arrows="1" fold="1" page="1" pageScale="1" pageWidth="827" pageHeight="1169" math="0" shadow="0">
      <root>
        <mxCell id="0" />
        <mxCell id="1" parent="0" />
        <mxCell id="kGJDHgGEsKVxHL9vkZrV-1" value="sito" style="shape=umlLifeline;perimeter=lifelinePerimeter;whiteSpace=wrap;html=1;container=1;dropTarget=0;collapsible=0;recursiveResize=0;outlineConnect=0;portConstraint=eastwest;newEdgeStyle={&quot;edgeStyle&quot;:&quot;elbowEdgeStyle&quot;,&quot;elbow&quot;:&quot;vertical&quot;,&quot;curved&quot;:0,&quot;rounded&quot;:0};" vertex="1" parent="1">
          <mxGeometry x="220" y="110" width="100" height="300" as="geometry" />
        </mxCell>
        <mxCell id="kGJDHgGEsKVxHL9vkZrV-2" value="" style="html=1;points=[[0,0,0,0,5],[0,1,0,0,-5],[1,0,0,0,5],[1,1,0,0,-5]];perimeter=orthogonalPerimeter;outlineConnect=0;targetShapes=umlLifeline;portConstraint=eastwest;newEdgeStyle={&quot;curved&quot;:0,&quot;rounded&quot;:0};" vertex="1" parent="kGJDHgGEsKVxHL9vkZrV-1">
          <mxGeometry x="45" y="90" width="10" height="210" as="geometry" />
        </mxCell>
        <mxCell id="kGJDHgGEsKVxHL9vkZrV-3" value="utente" style="shape=umlLifeline;perimeter=lifelinePerimeter;whiteSpace=wrap;html=1;container=1;dropTarget=0;collapsible=0;recursiveResize=0;outlineConnect=0;portConstraint=eastwest;newEdgeStyle={&quot;edgeStyle&quot;:&quot;elbowEdgeStyle&quot;,&quot;elbow&quot;:&quot;vertical&quot;,&quot;curved&quot;:0,&quot;rounded&quot;:0};" vertex="1" parent="1">
          <mxGeometry x="100" y="110" width="100" height="350" as="geometry" />
        </mxCell>
        <mxCell id="kGJDHgGEsKVxHL9vkZrV-4" value="" style="html=1;points=[[0,0,0,0,5],[0,1,0,0,-5],[1,0,0,0,5],[1,1,0,0,-5]];perimeter=orthogonalPerimeter;outlineConnect=0;targetShapes=umlLifeline;portConstraint=eastwest;newEdgeStyle={&quot;curved&quot;:0,&quot;rounded&quot;:0};" vertex="1" parent="kGJDHgGEsKVxHL9vkZrV-3">
          <mxGeometry x="45" y="90" width="10" height="260" as="geometry" />
        </mxCell>
        <mxCell id="kGJDHgGEsKVxHL9vkZrV-5" value="email" style="shape=umlLifeline;perimeter=lifelinePerimeter;whiteSpace=wrap;html=1;container=1;dropTarget=0;collapsible=0;recursiveResize=0;outlineConnect=0;portConstraint=eastwest;newEdgeStyle={&quot;edgeStyle&quot;:&quot;elbowEdgeStyle&quot;,&quot;elbow&quot;:&quot;vertical&quot;,&quot;curved&quot;:0,&quot;rounded&quot;:0};" vertex="1" parent="1">
          <mxGeometry x="464" y="110" width="100" height="330" as="geometry" />
        </mxCell>
        <mxCell id="kGJDHgGEsKVxHL9vkZrV-6" value="" style="html=1;points=[[0,0,0,0,5],[0,1,0,0,-5],[1,0,0,0,5],[1,1,0,0,-5]];perimeter=orthogonalPerimeter;outlineConnect=0;targetShapes=umlLifeline;portConstraint=eastwest;newEdgeStyle={&quot;curved&quot;:0,&quot;rounded&quot;:0};" vertex="1" parent="kGJDHgGEsKVxHL9vkZrV-5">
          <mxGeometry x="45" y="90" width="10" height="240" as="geometry" />
        </mxCell>
        <mxCell id="kGJDHgGEsKVxHL9vkZrV-7" value="" style="html=1;verticalAlign=bottom;labelBackgroundColor=none;endArrow=block;endFill=1;endSize=6;align=left;rounded=0;exitX=1;exitY=0;exitDx=0;exitDy=5;exitPerimeter=0;entryX=0;entryY=0;entryDx=0;entryDy=5;entryPerimeter=0;" edge="1" parent="1" source="kGJDHgGEsKVxHL9vkZrV-4" target="kGJDHgGEsKVxHL9vkZrV-2">
          <mxGeometry x="-1" relative="1" as="geometry">
            <mxPoint y="220" as="sourcePoint" />
            <mxPoint x="160" y="220" as="targetPoint" />
          </mxGeometry>
        </mxCell>
        <mxCell id="kGJDHgGEsKVxHL9vkZrV-8" value="login(id,psw)" style="edgeLabel;html=1;align=center;verticalAlign=middle;resizable=0;points=[];" vertex="1" connectable="0" parent="kGJDHgGEsKVxHL9vkZrV-7">
          <mxGeometry x="-0.0182" relative="1" as="geometry">
            <mxPoint as="offset" />
          </mxGeometry>
        </mxCell>
        <mxCell id="kGJDHgGEsKVxHL9vkZrV-11" value="" style="endArrow=open;html=1;rounded=0;align=center;verticalAlign=bottom;dashed=1;endFill=0;labelBackgroundColor=none;" edge="1" parent="1" target="kGJDHgGEsKVxHL9vkZrV-1" source="kGJDHgGEsKVxHL9vkZrV-35">
          <mxGeometry relative="1" as="geometry">
            <mxPoint x="509" y="340" as="sourcePoint" />
            <mxPoint x="393.92857142857133" y="340" as="targetPoint" />
            <Array as="points">
              <mxPoint x="330" y="360" />
            </Array>
          </mxGeometry>
        </mxCell>
        <mxCell id="kGJDHgGEsKVxHL9vkZrV-12" value="inviato" style="resizable=0;html=1;align=center;verticalAlign=top;labelBackgroundColor=none;" connectable="0" vertex="1" parent="kGJDHgGEsKVxHL9vkZrV-11">
          <mxGeometry relative="1" as="geometry" />
        </mxCell>
        <mxCell id="kGJDHgGEsKVxHL9vkZrV-13" value="" style="endArrow=open;html=1;rounded=0;align=center;verticalAlign=bottom;dashed=1;endFill=0;labelBackgroundColor=none;" edge="1" parent="1">
          <mxGeometry relative="1" as="geometry">
            <mxPoint x="265" y="370" as="sourcePoint" />
            <mxPoint x="150" y="370" as="targetPoint" />
          </mxGeometry>
        </mxCell>
        <mxCell id="kGJDHgGEsKVxHL9vkZrV-14" value="inviata" style="resizable=0;html=1;align=center;verticalAlign=top;labelBackgroundColor=none;" connectable="0" vertex="1" parent="kGJDHgGEsKVxHL9vkZrV-13">
          <mxGeometry relative="1" as="geometry" />
        </mxCell>
        <mxCell id="kGJDHgGEsKVxHL9vkZrV-15" value="email nuova" style="shape=umlLifeline;perimeter=lifelinePerimeter;whiteSpace=wrap;html=1;container=1;dropTarget=0;collapsible=0;recursiveResize=0;outlineConnect=0;portConstraint=eastwest;newEdgeStyle={&quot;edgeStyle&quot;:&quot;elbowEdgeStyle&quot;,&quot;elbow&quot;:&quot;vertical&quot;,&quot;curved&quot;:0,&quot;rounded&quot;:0};" vertex="1" parent="1">
          <mxGeometry x="350" y="195" width="100" height="180" as="geometry" />
        </mxCell>
        <mxCell id="kGJDHgGEsKVxHL9vkZrV-16" value="" style="html=1;points=[[0,0,0,0,5],[0,1,0,0,-5],[1,0,0,0,5],[1,1,0,0,-5]];perimeter=orthogonalPerimeter;outlineConnect=0;targetShapes=umlLifeline;portConstraint=eastwest;newEdgeStyle={&quot;curved&quot;:0,&quot;rounded&quot;:0};" vertex="1" parent="kGJDHgGEsKVxHL9vkZrV-15">
          <mxGeometry x="45" y="80" width="10" height="40" as="geometry" />
        </mxCell>
        <mxCell id="kGJDHgGEsKVxHL9vkZrV-17" value="out box" style="shape=umlLifeline;perimeter=lifelinePerimeter;whiteSpace=wrap;html=1;container=1;dropTarget=0;collapsible=0;recursiveResize=0;outlineConnect=0;portConstraint=eastwest;newEdgeStyle={&quot;edgeStyle&quot;:&quot;elbowEdgeStyle&quot;,&quot;elbow&quot;:&quot;vertical&quot;,&quot;curved&quot;:0,&quot;rounded&quot;:0};" vertex="1" parent="1">
          <mxGeometry x="585" y="110" width="100" height="350" as="geometry" />
        </mxCell>
        <mxCell id="kGJDHgGEsKVxHL9vkZrV-18" value="" style="html=1;points=[[0,0,0,0,5],[0,1,0,0,-5],[1,0,0,0,5],[1,1,0,0,-5]];perimeter=orthogonalPerimeter;outlineConnect=0;targetShapes=umlLifeline;portConstraint=eastwest;newEdgeStyle={&quot;curved&quot;:0,&quot;rounded&quot;:0};" vertex="1" parent="kGJDHgGEsKVxHL9vkZrV-17">
          <mxGeometry x="45" y="85" width="10" height="20" as="geometry" />
        </mxCell>
        <mxCell id="kGJDHgGEsKVxHL9vkZrV-21" value="" style="html=1;verticalAlign=bottom;labelBackgroundColor=none;endArrow=block;endFill=1;endSize=6;align=left;rounded=0;" edge="1" parent="1" target="kGJDHgGEsKVxHL9vkZrV-5">
          <mxGeometry x="-1" relative="1" as="geometry">
            <mxPoint x="280" y="259.71" as="sourcePoint" />
            <mxPoint x="350" y="259.71" as="targetPoint" />
          </mxGeometry>
        </mxCell>
        <mxCell id="kGJDHgGEsKVxHL9vkZrV-22" value="aggiungi messaggi(testo)" style="edgeLabel;html=1;align=center;verticalAlign=middle;resizable=0;points=[];" vertex="1" connectable="0" parent="kGJDHgGEsKVxHL9vkZrV-21">
          <mxGeometry x="0.0459" relative="1" as="geometry">
            <mxPoint as="offset" />
          </mxGeometry>
        </mxCell>
        <mxCell id="kGJDHgGEsKVxHL9vkZrV-23" value="" style="html=1;verticalAlign=bottom;labelBackgroundColor=none;endArrow=block;endFill=1;endSize=6;align=left;rounded=0;" edge="1" parent="1" target="kGJDHgGEsKVxHL9vkZrV-17" source="kGJDHgGEsKVxHL9vkZrV-5">
          <mxGeometry x="-1" relative="1" as="geometry">
            <mxPoint x="520" y="284.71" as="sourcePoint" />
            <mxPoint x="629" y="284.71" as="targetPoint" />
            <Array as="points">
              <mxPoint x="540" y="300" />
            </Array>
          </mxGeometry>
        </mxCell>
        <mxCell id="kGJDHgGEsKVxHL9vkZrV-24" value="aggiungi in out" style="edgeLabel;html=1;align=center;verticalAlign=middle;resizable=0;points=[];" vertex="1" connectable="0" parent="kGJDHgGEsKVxHL9vkZrV-23">
          <mxGeometry x="0.0459" relative="1" as="geometry">
            <mxPoint as="offset" />
          </mxGeometry>
        </mxCell>
        <mxCell id="kGJDHgGEsKVxHL9vkZrV-31" value="" style="html=1;verticalAlign=bottom;labelBackgroundColor=none;endArrow=block;endFill=1;endSize=6;align=left;rounded=0;exitX=1;exitY=0;exitDx=0;exitDy=5;exitPerimeter=0;" edge="1" parent="1">
          <mxGeometry x="-1" relative="1" as="geometry">
            <mxPoint x="270" y="219.99999999999997" as="sourcePoint" />
            <mxPoint x="350" y="220" as="targetPoint" />
          </mxGeometry>
        </mxCell>
        <mxCell id="kGJDHgGEsKVxHL9vkZrV-32" value="creazione" style="edgeLabel;html=1;align=center;verticalAlign=middle;resizable=0;points=[];" vertex="1" connectable="0" parent="kGJDHgGEsKVxHL9vkZrV-31">
          <mxGeometry x="-0.0182" relative="1" as="geometry">
            <mxPoint as="offset" />
          </mxGeometry>
        </mxCell>
        <mxCell id="kGJDHgGEsKVxHL9vkZrV-33" value="" style="endArrow=open;html=1;rounded=0;align=center;verticalAlign=bottom;dashed=1;endFill=0;labelBackgroundColor=none;" edge="1" parent="1" target="kGJDHgGEsKVxHL9vkZrV-5">
          <mxGeometry relative="1" as="geometry">
            <mxPoint x="633.5" y="310" as="sourcePoint" />
            <mxPoint x="530" y="310" as="targetPoint" />
            <Array as="points">
              <mxPoint x="600" y="310" />
            </Array>
          </mxGeometry>
        </mxCell>
        <mxCell id="kGJDHgGEsKVxHL9vkZrV-34" value="memorizzata" style="resizable=0;html=1;align=center;verticalAlign=top;labelBackgroundColor=none;" connectable="0" vertex="1" parent="kGJDHgGEsKVxHL9vkZrV-33">
          <mxGeometry relative="1" as="geometry" />
        </mxCell>
        <mxCell id="kGJDHgGEsKVxHL9vkZrV-35" value="server invio" style="shape=umlLifeline;perimeter=lifelinePerimeter;whiteSpace=wrap;html=1;container=1;dropTarget=0;collapsible=0;recursiveResize=0;outlineConnect=0;portConstraint=eastwest;newEdgeStyle={&quot;edgeStyle&quot;:&quot;elbowEdgeStyle&quot;,&quot;elbow&quot;:&quot;vertical&quot;,&quot;curved&quot;:0,&quot;rounded&quot;:0};" vertex="1" parent="1">
          <mxGeometry x="700" y="110" width="100" height="350" as="geometry" />
        </mxCell>
        <mxCell id="kGJDHgGEsKVxHL9vkZrV-36" value="" style="html=1;points=[[0,0,0,0,5],[0,1,0,0,-5],[1,0,0,0,5],[1,1,0,0,-5]];perimeter=orthogonalPerimeter;outlineConnect=0;targetShapes=umlLifeline;portConstraint=eastwest;newEdgeStyle={&quot;curved&quot;:0,&quot;rounded&quot;:0};" vertex="1" parent="kGJDHgGEsKVxHL9vkZrV-35">
          <mxGeometry x="45" y="85" width="10" height="20" as="geometry" />
        </mxCell>
        <mxCell id="kGJDHgGEsKVxHL9vkZrV-37" value="" style="html=1;verticalAlign=bottom;labelBackgroundColor=none;endArrow=block;endFill=1;endSize=6;align=left;rounded=0;" edge="1" parent="1">
          <mxGeometry x="-1" relative="1" as="geometry">
            <mxPoint x="519.75" y="340" as="sourcePoint" />
            <mxPoint x="750.25" y="340" as="targetPoint" />
          </mxGeometry>
        </mxCell>
        <mxCell id="kGJDHgGEsKVxHL9vkZrV-38" value="invia" style="edgeLabel;html=1;align=center;verticalAlign=middle;resizable=0;points=[];" vertex="1" connectable="0" parent="kGJDHgGEsKVxHL9vkZrV-37">
          <mxGeometry x="0.0459" relative="1" as="geometry">
            <mxPoint as="offset" />
          </mxGeometry>
        </mxCell>
        <mxCell id="kGJDHgGEsKVxHL9vkZrV-39" value="" style="endArrow=open;html=1;rounded=0;align=center;verticalAlign=bottom;dashed=1;endFill=0;labelBackgroundColor=none;" edge="1" parent="1">
          <mxGeometry relative="1" as="geometry">
            <mxPoint x="509.5" y="284.71" as="sourcePoint" />
            <mxPoint x="400" y="285" as="targetPoint" />
          </mxGeometry>
        </mxCell>
        <mxCell id="kGJDHgGEsKVxHL9vkZrV-40" value="testo" style="resizable=0;html=1;align=center;verticalAlign=top;labelBackgroundColor=none;" connectable="0" vertex="1" parent="kGJDHgGEsKVxHL9vkZrV-39">
          <mxGeometry relative="1" as="geometry" />
        </mxCell>
        <mxCell id="kGJDHgGEsKVxHL9vkZrV-42" value="" style="shape=umlDestroy;html=1;" vertex="1" parent="1">
          <mxGeometry x="385" y="370" width="30" height="30" as="geometry" />
        </mxCell>
      </root>
    </mxGraphModel>
  </diagram>
  <diagram id="Lh9hKibxez7-fg0SFzDa" name="Pagina-6">
    <mxGraphModel dx="1154" dy="570" grid="1" gridSize="10" guides="1" tooltips="1" connect="1" arrows="1" fold="1" page="1" pageScale="1" pageWidth="827" pageHeight="1169" math="0" shadow="0">
      <root>
        <mxCell id="0" />
        <mxCell id="1" parent="0" />
        <mxCell id="jcHqSIiwifL_N5uJTBj9-1" value="sito" style="shape=umlLifeline;perimeter=lifelinePerimeter;whiteSpace=wrap;html=1;container=1;dropTarget=0;collapsible=0;recursiveResize=0;outlineConnect=0;portConstraint=eastwest;newEdgeStyle={&quot;edgeStyle&quot;:&quot;elbowEdgeStyle&quot;,&quot;elbow&quot;:&quot;vertical&quot;,&quot;curved&quot;:0,&quot;rounded&quot;:0};" vertex="1" parent="1">
          <mxGeometry x="220" y="110" width="100" height="350" as="geometry" />
        </mxCell>
        <mxCell id="jcHqSIiwifL_N5uJTBj9-2" value="" style="html=1;points=[[0,0,0,0,5],[0,1,0,0,-5],[1,0,0,0,5],[1,1,0,0,-5]];perimeter=orthogonalPerimeter;outlineConnect=0;targetShapes=umlLifeline;portConstraint=eastwest;newEdgeStyle={&quot;curved&quot;:0,&quot;rounded&quot;:0};" vertex="1" parent="jcHqSIiwifL_N5uJTBj9-1">
          <mxGeometry x="45" y="90" width="10" height="260" as="geometry" />
        </mxCell>
        <mxCell id="jcHqSIiwifL_N5uJTBj9-3" value="utente" style="shape=umlLifeline;perimeter=lifelinePerimeter;whiteSpace=wrap;html=1;container=1;dropTarget=0;collapsible=0;recursiveResize=0;outlineConnect=0;portConstraint=eastwest;newEdgeStyle={&quot;edgeStyle&quot;:&quot;elbowEdgeStyle&quot;,&quot;elbow&quot;:&quot;vertical&quot;,&quot;curved&quot;:0,&quot;rounded&quot;:0};" vertex="1" parent="1">
          <mxGeometry x="100" y="110" width="100" height="350" as="geometry" />
        </mxCell>
        <mxCell id="jcHqSIiwifL_N5uJTBj9-4" value="" style="html=1;points=[[0,0,0,0,5],[0,1,0,0,-5],[1,0,0,0,5],[1,1,0,0,-5]];perimeter=orthogonalPerimeter;outlineConnect=0;targetShapes=umlLifeline;portConstraint=eastwest;newEdgeStyle={&quot;curved&quot;:0,&quot;rounded&quot;:0};" vertex="1" parent="jcHqSIiwifL_N5uJTBj9-3">
          <mxGeometry x="45" y="90" width="10" height="260" as="geometry" />
        </mxCell>
        <mxCell id="jcHqSIiwifL_N5uJTBj9-5" value="email out box" style="shape=umlLifeline;perimeter=lifelinePerimeter;whiteSpace=wrap;html=1;container=1;dropTarget=0;collapsible=0;recursiveResize=0;outlineConnect=0;portConstraint=eastwest;newEdgeStyle={&quot;edgeStyle&quot;:&quot;elbowEdgeStyle&quot;,&quot;elbow&quot;:&quot;vertical&quot;,&quot;curved&quot;:0,&quot;rounded&quot;:0};" vertex="1" parent="1">
          <mxGeometry x="464" y="110" width="100" height="330" as="geometry" />
        </mxCell>
        <mxCell id="jcHqSIiwifL_N5uJTBj9-6" value="" style="html=1;points=[[0,0,0,0,5],[0,1,0,0,-5],[1,0,0,0,5],[1,1,0,0,-5]];perimeter=orthogonalPerimeter;outlineConnect=0;targetShapes=umlLifeline;portConstraint=eastwest;newEdgeStyle={&quot;curved&quot;:0,&quot;rounded&quot;:0};" vertex="1" parent="jcHqSIiwifL_N5uJTBj9-5">
          <mxGeometry x="45" y="90" width="10" height="240" as="geometry" />
        </mxCell>
        <mxCell id="jcHqSIiwifL_N5uJTBj9-7" value="" style="html=1;verticalAlign=bottom;labelBackgroundColor=none;endArrow=block;endFill=1;endSize=6;align=left;rounded=0;exitX=1;exitY=0;exitDx=0;exitDy=5;exitPerimeter=0;entryX=0;entryY=0;entryDx=0;entryDy=5;entryPerimeter=0;" edge="1" parent="1" source="jcHqSIiwifL_N5uJTBj9-4" target="jcHqSIiwifL_N5uJTBj9-2">
          <mxGeometry x="-1" relative="1" as="geometry">
            <mxPoint y="220" as="sourcePoint" />
            <mxPoint x="160" y="220" as="targetPoint" />
          </mxGeometry>
        </mxCell>
        <mxCell id="jcHqSIiwifL_N5uJTBj9-8" value="login(id,psw)" style="edgeLabel;html=1;align=center;verticalAlign=middle;resizable=0;points=[];" vertex="1" connectable="0" parent="jcHqSIiwifL_N5uJTBj9-7">
          <mxGeometry x="-0.0182" relative="1" as="geometry">
            <mxPoint as="offset" />
          </mxGeometry>
        </mxCell>
        <mxCell id="jcHqSIiwifL_N5uJTBj9-21" value="" style="html=1;verticalAlign=bottom;labelBackgroundColor=none;endArrow=block;endFill=1;endSize=6;align=left;rounded=0;" edge="1" parent="1" source="jcHqSIiwifL_N5uJTBj9-2" target="jcHqSIiwifL_N5uJTBj9-6">
          <mxGeometry x="-1" relative="1" as="geometry">
            <mxPoint x="270" y="219.99999999999997" as="sourcePoint" />
            <mxPoint x="350" y="220" as="targetPoint" />
            <Array as="points">
              <mxPoint x="350" y="310" />
            </Array>
          </mxGeometry>
        </mxCell>
        <mxCell id="jcHqSIiwifL_N5uJTBj9-22" value="spedizione" style="edgeLabel;html=1;align=center;verticalAlign=middle;resizable=0;points=[];" vertex="1" connectable="0" parent="jcHqSIiwifL_N5uJTBj9-21">
          <mxGeometry x="-0.0182" relative="1" as="geometry">
            <mxPoint as="offset" />
          </mxGeometry>
        </mxCell>
        <mxCell id="jcHqSIiwifL_N5uJTBj9-25" value="server invio" style="shape=umlLifeline;perimeter=lifelinePerimeter;whiteSpace=wrap;html=1;container=1;dropTarget=0;collapsible=0;recursiveResize=0;outlineConnect=0;portConstraint=eastwest;newEdgeStyle={&quot;edgeStyle&quot;:&quot;elbowEdgeStyle&quot;,&quot;elbow&quot;:&quot;vertical&quot;,&quot;curved&quot;:0,&quot;rounded&quot;:0};" vertex="1" parent="1">
          <mxGeometry x="700" y="110" width="100" height="350" as="geometry" />
        </mxCell>
        <mxCell id="jcHqSIiwifL_N5uJTBj9-32" value="loop" style="shape=umlFrame;whiteSpace=wrap;html=1;pointerEvents=0;recursiveResize=0;container=1;collapsible=0;width=160;" vertex="1" parent="1">
          <mxGeometry x="220" y="270" width="580" height="140" as="geometry" />
        </mxCell>
        <mxCell id="jcHqSIiwifL_N5uJTBj9-33" value="[email not empty" style="text;html=1;align=center;verticalAlign=middle;resizable=0;points=[];autosize=1;strokeColor=none;fillColor=none;" vertex="1" parent="jcHqSIiwifL_N5uJTBj9-32">
          <mxGeometry x="295" width="110" height="30" as="geometry" />
        </mxCell>
        <mxCell id="jcHqSIiwifL_N5uJTBj9-17" value="" style="html=1;verticalAlign=bottom;labelBackgroundColor=none;endArrow=block;endFill=1;endSize=6;align=left;rounded=0;" edge="1" parent="jcHqSIiwifL_N5uJTBj9-32">
          <mxGeometry x="-1" relative="1" as="geometry">
            <mxPoint x="295" y="69.65999999999997" as="sourcePoint" />
            <mxPoint x="528.5" y="69.66000000000003" as="targetPoint" />
          </mxGeometry>
        </mxCell>
        <mxCell id="jcHqSIiwifL_N5uJTBj9-18" value="spedisci" style="edgeLabel;html=1;align=center;verticalAlign=middle;resizable=0;points=[];" vertex="1" connectable="0" parent="jcHqSIiwifL_N5uJTBj9-17">
          <mxGeometry x="0.0459" relative="1" as="geometry">
            <mxPoint as="offset" />
          </mxGeometry>
        </mxCell>
        <mxCell id="jcHqSIiwifL_N5uJTBj9-34" value="" style="endArrow=open;html=1;rounded=0;align=center;verticalAlign=bottom;dashed=1;endFill=0;labelBackgroundColor=none;" edge="1" parent="jcHqSIiwifL_N5uJTBj9-32" target="jcHqSIiwifL_N5uJTBj9-2">
          <mxGeometry relative="1" as="geometry">
            <mxPoint x="530" y="90" as="sourcePoint" />
            <mxPoint x="640" y="90.28999999999999" as="targetPoint" />
          </mxGeometry>
        </mxCell>
        <mxCell id="jcHqSIiwifL_N5uJTBj9-35" value="inviato" style="resizable=0;html=1;align=center;verticalAlign=top;labelBackgroundColor=none;" connectable="0" vertex="1" parent="jcHqSIiwifL_N5uJTBj9-34">
          <mxGeometry relative="1" as="geometry" />
        </mxCell>
        <mxCell id="jcHqSIiwifL_N5uJTBj9-26" value="" style="html=1;points=[[0,0,0,0,5],[0,1,0,0,-5],[1,0,0,0,5],[1,1,0,0,-5]];perimeter=orthogonalPerimeter;outlineConnect=0;targetShapes=umlLifeline;portConstraint=eastwest;newEdgeStyle={&quot;curved&quot;:0,&quot;rounded&quot;:0};" vertex="1" parent="jcHqSIiwifL_N5uJTBj9-32">
          <mxGeometry x="525" y="50" width="10" height="65" as="geometry" />
        </mxCell>
        <mxCell id="jcHqSIiwifL_N5uJTBj9-37" value="" style="endArrow=open;html=1;rounded=0;align=center;verticalAlign=bottom;dashed=1;endFill=0;labelBackgroundColor=none;" edge="1" parent="1">
          <mxGeometry relative="1" as="geometry">
            <mxPoint x="264.5" y="430" as="sourcePoint" />
            <mxPoint x="150" y="430" as="targetPoint" />
          </mxGeometry>
        </mxCell>
        <mxCell id="jcHqSIiwifL_N5uJTBj9-38" value="spedite tutte&amp;nbsp;" style="resizable=0;html=1;align=center;verticalAlign=top;labelBackgroundColor=none;" connectable="0" vertex="1" parent="jcHqSIiwifL_N5uJTBj9-37">
          <mxGeometry relative="1" as="geometry" />
        </mxCell>
        <mxCell id="jcHqSIiwifL_N5uJTBj9-41" value="potrei fare alt per vedere se ci sono&amp;nbsp;" style="text;html=1;align=center;verticalAlign=middle;resizable=0;points=[];autosize=1;strokeColor=none;fillColor=none;" vertex="1" parent="1">
          <mxGeometry x="175" y="48" width="210" height="30" as="geometry" />
        </mxCell>
      </root>
    </mxGraphModel>
  </diagram>
</mxfile>
